<?xml version="1.0" encoding="utf-8"?>
<!-- Generator: Adobe Illustrator 27.5.0, SVG Export Plug-In . SVG Version: 6.00 Build 0)  -->
<svg version="1.1" id="Layer_2" xmlns="http://www.w3.org/2000/svg" xmlns:xlink="http://www.w3.org/1999/xlink" x="0px" y="0px"
	 viewBox="0 0 103 275" style="enable-background:new 0 0 103 275;" xml:space="preserve">
<g>
	
		<rect x="45.584" y="167.085" style="fill:#756A57;stroke:#4B4336;stroke-width:1.1166;stroke-miterlimit:10;" width="14" height="97.582"/>
	<path style="opacity:0.5;fill:#756A57;" d="M45.584,167.085v97.582h2.257v-89.915c0-5.687,8.818-5.687,8.818,0v89.915h2.925
		v-97.582H45.584z"/>
	
		<rect x="20.915" y="162.918" style="fill:#756A57;stroke:#4B4336;stroke-width:1.1166;stroke-miterlimit:10;" width="64.001" height="5.666"/>
	
		<rect x="13.25" y="12" style="fill:#9B9B9B;stroke:#656666;stroke-linecap:round;stroke-linejoin:round;stroke-miterlimit:10;" width="76.5" height="151"/>
	<g>
		<path style="fill:#F4F4F4;stroke:#656666;stroke-width:0.7233;stroke-miterlimit:10;" d="M87.469,158.2
			c0,1.224-0.993,2.218-2.219,2.218H17.969c-1.226,0-2.219-0.994-2.219-2.218V16.627c0-1.225,0.993-2.218,2.219-2.218H85.25
			c1.226,0,2.219,0.993,2.219,2.218V158.2z"/>
		<path style="opacity:0.8;fill:#C9C9C9;" d="M85.25,14.409h-1.64c-0.003,0.161,0.028,0.411-0.113,0.438
			c-3.31,0.63-2.32,5.236,1.392,5.334c0.506,0.013,0.88,0.4,0.901,0.901c0.074,1.771,1.546,131.697-1.279,132.315
			c-1.134,0.246-2.714,0.53-2.678,1.97c0.009,0.33-0.161,0.703-0.325,0.983c-0.557,0.95-1.93,1.2-2.928,1.146
			c-11.912-0.643-36.644-0.496-48.603-0.53c-1.585-0.005-6.409,0.583-7.899-0.182c-1.693-0.87-0.419-1.918-2.363-2.341
			c-2.528-0.551-2.267-129.325-2.095-131.119c0.12-1.256,0.528-2.234,1.336-3.174c0.47-0.547,1.274-0.767,1.854-1.158
			c2.748-1.857,0.252-4.186-0.72-4.601c-0.633-0.271-1.549,0.456-1.939,0.018h-0.182c-1.226,0-2.219,0.993-2.219,2.218V158.2
			c0,1.224,0.993,2.218,2.219,2.218H85.25c1.226,0,2.219-0.994,2.219-2.218V16.627C87.469,15.402,86.476,14.409,85.25,14.409z"/>
		
			<path style="fill:#F4F4F4;stroke:#A5A5A5;stroke-width:0.6029;stroke-linecap:round;stroke-linejoin:round;stroke-miterlimit:10;" d="
			M84.889,17.465c0,0.599-0.486,1.085-1.085,1.085c-0.599,0-1.085-0.486-1.085-1.085c0-0.599,0.486-1.085,1.085-1.085
			C84.402,16.38,84.889,16.867,84.889,17.465z"/>
		
			<path style="fill:#F4F4F4;stroke:#A5A5A5;stroke-width:0.6029;stroke-linecap:round;stroke-linejoin:round;stroke-miterlimit:10;" d="
			M84.889,157.508c0,0.599-0.486,1.084-1.085,1.084c-0.599,0-1.085-0.485-1.085-1.084c0-0.6,0.486-1.086,1.085-1.086
			C84.402,156.422,84.889,156.908,84.889,157.508z"/>
		
			<path style="fill:#F4F4F4;stroke:#A5A5A5;stroke-width:0.6029;stroke-linecap:round;stroke-linejoin:round;stroke-miterlimit:10;" d="
			M19.908,17.465c0,0.599-0.486,1.085-1.085,1.085c-0.599,0-1.085-0.486-1.085-1.085c0-0.599,0.486-1.085,1.085-1.085
			C19.422,16.38,19.908,16.867,19.908,17.465z"/>
		
			<path style="fill:#F4F4F4;stroke:#A5A5A5;stroke-width:0.6029;stroke-linecap:round;stroke-linejoin:round;stroke-miterlimit:10;" d="
			M19.908,157.508c0,0.599-0.486,1.084-1.085,1.084c-0.599,0-1.085-0.485-1.085-1.084c0-0.6,0.486-1.086,1.085-1.086
			C19.422,156.422,19.908,156.908,19.908,157.508z"/>
	</g>
	<g>
		<linearGradient id="SVGID_1_" gradientUnits="userSpaceOnUse" x1="51.4585" y1="80.834" x2="51.4585" y2="54.6627">
			<stop  offset="0" style="stop-color:#959594"/>
			<stop  offset="1" style="stop-color:#000000"/>
		</linearGradient>
		<path style="opacity:0.4;fill:url(#SVGID_1_);" d="M79.167,52.959c0,15.165-12.404,27.458-27.708,27.458
			S23.75,68.124,23.75,52.959S36.155,25.5,51.459,25.5S79.167,37.794,79.167,52.959z"/>
		<circle style="fill:#756A57;stroke:#4B4336;stroke-miterlimit:10;" cx="51.375" cy="51.625" r="25.625"/>
		<circle style="fill:#4B4336;" cx="51.375" cy="51.625" r="22.5"/>
		<circle style="fill:#420805;" cx="51.375" cy="51.625" r="21"/>
		<path style="opacity:0.3;fill:#EA2200;" d="M60.048,53.15c3.498,0.579,6.969,1.509,10.347,2.731
			c0.306-1.372,0.48-2.793,0.48-4.257c0-10.769-8.733-19.5-19.5-19.5s-19.5,8.731-19.5,19.5c0,1.793,0.262,3.522,0.716,5.17
			C41.263,52.972,51.45,51.728,60.048,53.15z"/>
		<g>
			<path style="fill:#EA2200;" d="M55.414,38.236c0,2.087-1.74,3.778-3.887,3.778c-2.146,0-3.887-1.691-3.887-3.778
				c0-2.086,1.74-3.778,3.887-3.778C53.674,34.458,55.414,36.149,55.414,38.236z"/>
			<polygon style="fill:#EA2200;" points="47.024,43.534 52.206,42.494 57.306,43.774 61.583,57.367 59.528,58.086 55.908,47.852 
				57.307,66.722 59.939,67.361 60.187,69.041 54.921,69.44 52.618,56.647 49.739,69.76 44.311,70 43.899,67.921 47.189,67.361 
				48.835,47.132 44.475,58.566 42.501,58.167 			"/>
		</g>
		<path style="fill:#FFFFFF;" d="M39.578,50.887C42.247,37.536,53.25,34,53.25,34c-1.75-2-14.75-1.75-19.5,11.25
			c-0.261,0.713-0.466,1.407-0.636,2.088C35.158,48.778,37.311,49.953,39.578,50.887z"/>
		<path style="fill:#FFFFFF;" d="M39.172,53.505c-2.286-0.898-4.463-2.019-6.536-3.377C31.726,60.163,40,66,40,66
			C38.979,61.175,38.797,57.042,39.172,53.505z"/>
		<path style="fill:#D4CCBE;" d="M27.583,54.334c0,0-0.109-1.237,0.052-3.403c0.184-2.151,0.577-5.275,1.949-8.772
			c0.686-1.741,1.613-3.57,2.874-5.325c1.252-1.759,2.871-3.424,4.823-4.766c1.942-1.354,4.188-2.398,6.568-3.085
			c2.381-0.688,4.885-1.048,7.389-1.138c2.482-0.052,5.033,0.133,7.446,0.688c2.417,0.549,4.72,1.485,6.71,2.774
			c1.999,1.279,3.664,2.913,4.925,4.669c1.273,1.75,2.195,3.585,2.87,5.331c1.349,3.508,1.704,6.638,1.869,8.791
			c0.141,2.167,0.024,3.403,0.024,3.403s0.027-1.241-0.218-3.386c-0.244-2.136-0.796-5.202-2.198-8.599
			c-0.707-1.69-1.655-3.449-2.931-5.102c-1.264-1.661-2.902-3.162-4.809-4.377c-1.911-1.212-4.117-2.088-6.447-2.594
			c-2.338-0.513-4.753-0.667-7.21-0.6c-2.438,0.065-4.864,0.393-7.164,1.035c-2.299,0.641-4.46,1.623-6.332,2.902
			c-1.869,1.281-3.475,2.816-4.732,4.486c-1.266,1.663-2.22,3.418-2.938,5.105c-1.428,3.387-2.014,6.445-2.276,8.58
			C27.563,53.093,27.583,54.334,27.583,54.334z"/>
	</g>
	<g>
		
			<linearGradient id="SVGID_00000091016029050192881340000005330744354635246008_" gradientUnits="userSpaceOnUse" x1="51.4585" y1="152.667" x2="51.4585" y2="126.4959">
			<stop  offset="0" style="stop-color:#959594"/>
			<stop  offset="1" style="stop-color:#000000"/>
		</linearGradient>
		<path style="opacity:0.4;fill:url(#SVGID_00000091016029050192881340000005330744354635246008_);" d="M79.167,124.792
			c0,15.165-12.404,27.458-27.708,27.458S23.75,139.957,23.75,124.792s12.405-27.458,27.709-27.458S79.167,109.627,79.167,124.792z"
			/>
		<path style="fill:#756A57;stroke:#4B4336;stroke-miterlimit:10;" d="M77,123.459c0,14.153-11.473,25.625-25.625,25.625
			S25.75,137.611,25.75,123.459c0-14.152,11.473-25.625,25.625-25.625S77,109.306,77,123.459z"/>
		<path style="fill:#4B4336;" d="M73.875,123.459c0,12.424-10.075,22.5-22.5,22.5s-22.5-10.076-22.5-22.5
			c0-12.426,10.075-22.5,22.5-22.5S73.875,111.033,73.875,123.459z"/>
		<path style="fill:#3F7500;" d="M72.375,123.459c0,11.596-9.404,21-21,21s-21-9.404-21-21c0-11.597,9.404-21,21-21
			S72.375,111.862,72.375,123.459z"/>
		<path style="opacity:0.5;fill:#75C30E;" d="M60.048,124.984c3.498,0.579,6.969,1.509,10.347,2.731
			c0.306-1.372,0.48-2.793,0.48-4.257c0-10.769-8.733-19.5-19.5-19.5s-19.5,8.731-19.5,19.5c0,1.793,0.262,3.521,0.716,5.17
			C41.263,124.805,51.45,123.561,60.048,124.984z"/>
		<g>
			
				<ellipse transform="matrix(0.0028 -1 1 0.0028 -58.1255 161.9928)" style="fill:#F5FF29;" cx="52.162" cy="110.141" rx="3.683" ry="3.684"/>
			<polygon style="fill:#F5FF29;" points="48.946,114.175 52.688,114.643 55.729,113.006 65.667,118.502 64.614,124.932 
				62.86,125.4 62.86,120.372 57.248,117.683 58.066,133.585 63.328,135.106 62.978,139.898 61.106,140.016 60.756,137.443 
				55.611,136.273 53.975,127.738 52.571,127.738 47.66,133 44.152,140.25 39.709,138.613 39.943,136.859 42.633,137.209 
				45.088,131.012 49.063,125.049 48.713,117.8 43.685,122.594 38.423,117.098 39.476,115.695 43.568,118.502 			"/>
		</g>
		<path style="fill:#FFFFFF;" d="M39.578,122.72c2.669-13.351,13.672-16.887,13.672-16.887c-1.75-2-14.75-1.75-19.5,11.25
			c-0.261,0.713-0.466,1.407-0.636,2.088C35.158,120.612,37.311,121.787,39.578,122.72z"/>
		<path style="fill:#FFFFFF;" d="M39.172,125.339c-2.286-0.898-4.463-2.019-6.536-3.378C31.726,131.996,40,137.834,40,137.834
			C38.979,133.009,38.797,128.876,39.172,125.339z"/>
		<path style="fill:#D4CCBE;" d="M27.583,126.168c0,0-0.109-1.237,0.052-3.403c0.184-2.151,0.577-5.275,1.949-8.772
			c0.686-1.741,1.613-3.57,2.874-5.325c1.252-1.759,2.871-3.424,4.823-4.766c1.942-1.354,4.188-2.398,6.568-3.085
			c2.381-0.688,4.885-1.048,7.389-1.138c2.482-0.052,5.033,0.133,7.446,0.688c2.417,0.549,4.72,1.485,6.71,2.774
			c1.999,1.279,3.664,2.913,4.925,4.669c1.273,1.75,2.195,3.585,2.87,5.331c1.349,3.508,1.704,6.638,1.869,8.791
			c0.141,2.167,0.024,3.403,0.024,3.403s0.027-1.241-0.218-3.386c-0.244-2.136-0.796-5.202-2.198-8.599
			c-0.707-1.69-1.655-3.449-2.931-5.102c-1.264-1.661-2.902-3.162-4.809-4.377c-1.911-1.212-4.117-2.088-6.447-2.594
			c-2.338-0.513-4.753-0.667-7.21-0.6c-2.438,0.065-4.864,0.394-7.164,1.035c-2.299,0.641-4.46,1.623-6.332,2.902
			c-1.869,1.281-3.475,2.816-4.732,4.486c-1.266,1.663-2.22,3.418-2.938,5.105c-1.428,3.387-2.014,6.445-2.276,8.58
			C27.563,124.926,27.583,126.168,27.583,126.168z"/>
	</g>
</g>
</svg>
